<svg width="32" height="32" viewBox="0 0 32 32" fill="none" xmlns="http://www.w3.org/2000/svg">
<rect width="32" height="32" rx="16" fill="#F85B18"/>
<g clip-path="url(#clip0_63_3546)">
<path d="M21.7467 13.6332C21.0467 10.5532 18.36 9.1665 16 9.1665C16 9.1665 16 9.1665 15.9933 9.1665C13.64 9.1665 10.9467 10.5465 10.2467 13.6265C9.46667 17.0665 11.5733 19.9798 13.48 21.8132C14.1867 22.4932 15.0933 22.8332 16 22.8332C16.9067 22.8332 17.8133 22.4932 18.5133 21.8132C20.42 19.9798 22.5267 17.0732 21.7467 13.6332ZM16 16.9732C14.84 16.9732 13.9 16.0332 13.9 14.8732C13.9 13.7132 14.84 12.7732 16 12.7732C17.16 12.7732 18.1 13.7132 18.1 14.8732C18.1 16.0332 17.16 16.9732 16 16.9732Z" fill="white"/>
</g>
<defs>
<clipPath id="clip0_63_3546">
<rect width="16" height="16" fill="white" transform="translate(8 8)"/>
</clipPath>
</defs>
</svg>
