<svg width="32" height="32" viewBox="0 0 32 32" fill="none" xmlns="http://www.w3.org/2000/svg">
<rect width="32" height="32" rx="16" fill="#F85B18"/>
<path d="M16 9.3335C12.3267 9.3335 9.33333 12.3268 9.33333 16.0002C9.33333 19.6735 12.3267 22.6668 16 22.6668C19.6733 22.6668 22.6667 19.6735 22.6667 16.0002C22.6667 12.3268 19.6733 9.3335 16 9.3335ZM18.9 18.3802C18.8067 18.5402 18.64 18.6268 18.4667 18.6268C18.38 18.6268 18.2933 18.6068 18.2133 18.5535L16.1467 17.3202C15.6333 17.0135 15.2533 16.3402 15.2533 15.7468V13.0135C15.2533 12.7402 15.48 12.5135 15.7533 12.5135C16.0267 12.5135 16.2533 12.7402 16.2533 13.0135V15.7468C16.2533 15.9868 16.4533 16.3402 16.66 16.4602L18.7267 17.6935C18.9667 17.8335 19.0467 18.1402 18.9 18.3802Z" fill="white"/>
</svg>
