<svg width="32" height="32" viewBox="0 0 32 32" fill="none" xmlns="http://www.w3.org/2000/svg">
<rect width="32" height="32" rx="16" fill="#F85B18"/>
<path d="M22.6467 20.2202C22.6467 20.4602 22.5933 20.7068 22.48 20.9468C22.3667 21.1868 22.22 21.4135 22.0267 21.6268C21.7 21.9868 21.34 22.2468 20.9333 22.4135C20.5333 22.5802 20.1 22.6668 19.6333 22.6668C18.9533 22.6668 18.2267 22.5068 17.46 22.1802C16.6933 21.8535 15.9267 21.4135 15.1667 20.8602C14.4 20.3002 13.6733 19.6802 12.98 18.9935C12.2933 18.3002 11.6733 17.5735 11.12 16.8135C10.5733 16.0535 10.1333 15.2935 9.81333 14.5402C9.49333 13.7802 9.33333 13.0535 9.33333 12.3602C9.33333 11.9068 9.41333 11.4735 9.57333 11.0735C9.73333 10.6668 9.98666 10.2935 10.34 9.96016C10.7667 9.54016 11.2333 9.3335 11.7267 9.3335C11.9133 9.3335 12.1 9.3735 12.2667 9.4535C12.44 9.5335 12.5933 9.6535 12.7133 9.82683L14.26 12.0068C14.38 12.1735 14.4667 12.3268 14.5267 12.4735C14.5867 12.6135 14.62 12.7535 14.62 12.8802C14.62 13.0402 14.5733 13.2002 14.48 13.3535C14.3933 13.5068 14.2667 13.6668 14.1067 13.8268L13.6 14.3535C13.5267 14.4268 13.4933 14.5135 13.4933 14.6202C13.4933 14.6735 13.5 14.7202 13.5133 14.7735C13.5333 14.8268 13.5533 14.8668 13.5667 14.9068C13.6867 15.1268 13.8933 15.4135 14.1867 15.7602C14.4867 16.1068 14.8067 16.4602 15.1533 16.8135C15.5133 17.1668 15.86 17.4935 16.2133 17.7935C16.56 18.0868 16.8467 18.2868 17.0733 18.4068C17.1067 18.4202 17.1467 18.4402 17.1933 18.4602C17.2467 18.4802 17.3 18.4868 17.36 18.4868C17.4733 18.4868 17.56 18.4468 17.6333 18.3735L18.14 17.8735C18.3067 17.7068 18.4667 17.5802 18.62 17.5002C18.7733 17.4068 18.9267 17.3602 19.0933 17.3602C19.22 17.3602 19.3533 17.3868 19.5 17.4468C19.6467 17.5068 19.8 17.5935 19.9667 17.7068L22.1733 19.2735C22.3467 19.3935 22.4667 19.5335 22.54 19.7002C22.6067 19.8668 22.6467 20.0335 22.6467 20.2202Z" fill="white"/>
</svg>
