<svg width="50" height="50" viewBox="0 0 50 50" fill="none" xmlns="http://www.w3.org/2000/svg">
<rect x="0.5" y="0.5" width="49" height="49" rx="5.5" fill="white"/>
<rect x="0.5" y="0.5" width="49" height="49" rx="5.5" stroke="#F85B18"/>
<path d="M15.777 28.6468V21.1468H17.0497V28.6468H15.777ZM12.6634 25.5332V24.2604H20.1634V25.5332H12.6634ZM26.983 19.0559V30.6923H25.5739V20.5332H25.5057L22.6648 22.4195V20.9877L25.5739 19.0559H26.983ZM33.9659 30.8514C33.2993 30.8514 32.6989 30.7188 32.1648 30.4536C31.6307 30.1885 31.2027 29.8248 30.8807 29.3627C30.5587 28.9006 30.3826 28.3741 30.3523 27.7832H31.7159C31.769 28.3097 32.0076 28.7453 32.4318 29.09C32.8599 29.4309 33.3712 29.6014 33.9659 29.6014C34.4432 29.6014 34.8674 29.4896 35.2387 29.2661C35.6137 29.0426 35.9072 28.7358 36.1193 28.3457C36.3352 27.9517 36.4432 27.5067 36.4432 27.0104C36.4432 26.5029 36.3315 26.0502 36.108 25.6525C35.8883 25.251 35.5852 24.9347 35.1989 24.7036C34.8125 24.4726 34.3712 24.3551 33.875 24.3514C33.519 24.3476 33.1534 24.4025 32.7784 24.5161C32.4034 24.626 32.0947 24.768 31.8523 24.9423L30.5341 24.7832L31.2387 19.0559H37.2841V20.3059H32.4205L32.0114 23.7377H32.0796C32.3182 23.5483 32.6174 23.3911 32.9773 23.2661C33.3371 23.1411 33.7121 23.0786 34.1023 23.0786C34.8144 23.0786 35.4489 23.2491 36.0057 23.59C36.5663 23.9271 37.0057 24.3892 37.3239 24.9764C37.6458 25.5635 37.8068 26.2339 37.8068 26.9877C37.8068 27.7301 37.6402 28.393 37.3068 28.9764C36.9773 29.5559 36.5227 30.0142 35.9432 30.3514C35.3637 30.6847 34.7046 30.8514 33.9659 30.8514Z" fill="#313440"/>
</svg>
