<svg width="20" height="20" viewBox="0 0 20 20" fill="none" xmlns="http://www.w3.org/2000/svg">
<path d="M13.5417 18.75C14.3471 18.75 15 18.0971 15 17.2917C15 16.4863 14.3471 15.8334 13.5417 15.8334C12.7363 15.8334 12.0833 16.4863 12.0833 17.2917C12.0833 18.0971 12.7363 18.75 13.5417 18.75Z" fill="#DADBDE"/>
<path d="M6.87499 18.75C7.68041 18.75 8.33332 18.0971 8.33332 17.2917C8.33332 16.4863 7.68041 15.8334 6.87499 15.8334C6.06957 15.8334 5.41666 16.4863 5.41666 17.2917C5.41666 18.0971 6.06957 18.75 6.87499 18.75Z" fill="#DADBDE"/>
<path d="M4.03332 3.28329L3.86666 5.32496C3.83332 5.71663 4.14166 6.04163 4.53332 6.04163H17.2917C17.6417 6.04163 17.9333 5.77496 17.9583 5.42496C18.0667 3.94996 16.9417 2.74996 15.4667 2.74996H5.22499C5.14166 2.38329 4.97499 2.03329 4.71666 1.74163C4.29999 1.29996 3.71666 1.04163 3.11666 1.04163H1.66666C1.32499 1.04163 1.04166 1.32496 1.04166 1.66663C1.04166 2.00829 1.32499 2.29163 1.66666 2.29163H3.11666C3.37499 2.29163 3.61666 2.39996 3.79166 2.58329C3.96666 2.77496 4.04999 3.02496 4.03332 3.28329Z" fill="#DADBDE"/>
<path d="M17.0917 7.29163H4.30833C3.95833 7.29163 3.67499 7.55829 3.64166 7.89996L3.34166 11.525C3.22499 12.95 4.34166 14.1666 5.76666 14.1666H15.0333C16.2833 14.1666 17.3833 13.1416 17.475 11.8916L17.75 7.99996C17.7833 7.61663 17.4833 7.29163 17.0917 7.29163Z" fill="#DADBDE"/>
</svg>
