<svg width="16" height="16" viewBox="0 0 16 16" fill="none" xmlns="http://www.w3.org/2000/svg">
<path d="M10.8333 15C11.4776 15 12 14.4777 12 13.8333C12 13.189 11.4776 12.6667 10.8333 12.6667C10.189 12.6667 9.66663 13.189 9.66663 13.8333C9.66663 14.4777 10.189 15 10.8333 15Z" fill="white"/>
<path d="M5.50004 15C6.14437 15 6.66671 14.4777 6.66671 13.8333C6.66671 13.189 6.14437 12.6667 5.50004 12.6667C4.85571 12.6667 4.33337 13.189 4.33337 13.8333C4.33337 14.4777 4.85571 15 5.50004 15Z" fill="white"/>
<path d="M3.22671 2.62667L3.09337 4.26C3.06671 4.57333 3.31337 4.83333 3.62671 4.83333H13.8334C14.1134 4.83333 14.3467 4.62 14.3667 4.34C14.4534 3.16 13.5534 2.2 12.3734 2.2H4.18004C4.11337 1.90667 3.98004 1.62667 3.77337 1.39333C3.44004 1.04 2.97337 0.833332 2.49337 0.833332H1.33337C1.06004 0.833332 0.833374 1.06 0.833374 1.33333C0.833374 1.60667 1.06004 1.83333 1.33337 1.83333H2.49337C2.70004 1.83333 2.89337 1.92 3.03337 2.06667C3.17337 2.22 3.24004 2.42 3.22671 2.62667Z" fill="white"/>
<path d="M13.6733 5.83333H3.44666C3.16666 5.83333 2.93999 6.04667 2.91333 6.32L2.67333 9.22C2.57999 10.36 3.47333 11.3333 4.61333 11.3333H12.0267C13.0267 11.3333 13.9067 10.5133 13.98 9.51333L14.2 6.4C14.2267 6.09333 13.9867 5.83333 13.6733 5.83333Z" fill="white"/>
</svg>
