<svg width="16" height="16" viewBox="0 0 16 16" fill="none" xmlns="http://www.w3.org/2000/svg">
<path d="M14.6667 14.6667H1.33337C1.06004 14.6667 0.833374 14.44 0.833374 14.1667C0.833374 13.8933 1.06004 13.6667 1.33337 13.6667H14.6667C14.94 13.6667 15.1667 13.8933 15.1667 14.1667C15.1667 14.44 14.94 14.6667 14.6667 14.6667Z" fill="#CBCBD1"/>
<path d="M6.5 2.66667V14.6667H9.5V2.66667C9.5 1.93333 9.2 1.33333 8.3 1.33333H7.7C6.8 1.33333 6.5 1.93333 6.5 2.66667Z" fill="#CBCBD1"/>
<path d="M2 6.66667V14.6667H4.66667V6.66667C4.66667 5.93333 4.4 5.33333 3.6 5.33333H3.06667C2.26667 5.33333 2 5.93333 2 6.66667Z" fill="#CBCBD1"/>
<path d="M11.3334 10V14.6667H14V10C14 9.26667 13.7334 8.66667 12.9334 8.66667H12.4C11.6 8.66667 11.3334 9.26667 11.3334 10Z" fill="#CBCBD1"/>
</svg>
