<svg width="16" height="16" viewBox="0 0 16 16" fill="none" xmlns="http://www.w3.org/2000/svg">
<path d="M8.86669 5.40667L9.74669 7.16667C9.86669 7.40667 10.1867 7.64667 10.4534 7.68667L12.0467 7.95333C13.0667 8.12667 13.3067 8.86 12.5734 9.59333L11.3334 10.84C11.1267 11.0467 11.0067 11.4533 11.0734 11.7467L11.4267 13.2867C11.7067 14.5 11.06 14.9733 9.98669 14.34L8.49336 13.4533C8.22002 13.2933 7.78002 13.2933 7.50669 13.4533L6.00669 14.3333C4.93336 14.9667 4.28669 14.4933 4.56669 13.28L4.92002 11.74C4.98669 11.4533 4.86669 11.0467 4.66002 10.8333L3.42669 9.6C2.69336 8.86667 2.93336 8.12667 3.95336 7.96L5.54669 7.69333C5.81336 7.64667 6.13336 7.41333 6.25336 7.17333L7.13336 5.41333C7.60669 4.45333 8.39336 4.45333 8.86669 5.40667Z" fill="#CBCBD1"/>
<path d="M4 6.5C3.72667 6.5 3.5 6.27333 3.5 6V1.33333C3.5 1.06 3.72667 0.833332 4 0.833332C4.27333 0.833332 4.5 1.06 4.5 1.33333V6C4.5 6.27333 4.27333 6.5 4 6.5Z" fill="#CBCBD1"/>
<path d="M12 6.5C11.7267 6.5 11.5 6.27333 11.5 6V1.33333C11.5 1.06 11.7267 0.833332 12 0.833332C12.2733 0.833332 12.5 1.06 12.5 1.33333V6C12.5 6.27333 12.2733 6.5 12 6.5Z" fill="#CBCBD1"/>
<path d="M8 3.16667C7.72667 3.16667 7.5 2.94 7.5 2.66667V1.33333C7.5 1.06 7.72667 0.833332 8 0.833332C8.27333 0.833332 8.5 1.06 8.5 1.33333V2.66667C8.5 2.94 8.27333 3.16667 8 3.16667Z" fill="#CBCBD1"/>
</svg>
