<svg width="43" height="43" viewBox="0 0 43 43" fill="none" xmlns="http://www.w3.org/2000/svg">
<rect width="43" height="43" rx="21.5" fill="#313440"/>
<path d="M31.0546 27.5661C31.0546 27.9111 30.9779 28.2657 30.815 28.6107C30.6521 28.9557 30.4413 29.2815 30.1634 29.5882C29.6938 30.1057 29.1763 30.4794 28.5917 30.719C28.0167 30.9586 27.3938 31.0832 26.7229 31.0832C25.7454 31.0832 24.7009 30.8532 23.5988 30.3836C22.4967 29.914 21.3946 29.2815 20.3021 28.4861C19.2 27.6811 18.1554 26.7898 17.1588 25.8028C16.1717 24.8061 15.2804 23.7615 14.485 22.669C13.6992 21.5765 13.0667 20.484 12.6067 19.4011C12.1467 18.3086 11.9167 17.264 11.9167 16.2673C11.9167 15.6157 12.0317 14.9928 12.2617 14.4178C12.4917 13.8332 12.8559 13.2965 13.3638 12.8173C13.9771 12.2136 14.6479 11.9165 15.3571 11.9165C15.6254 11.9165 15.8938 11.974 16.1334 12.089C16.3825 12.204 16.6029 12.3765 16.7754 12.6257L18.9988 15.7594C19.1713 15.999 19.2959 16.2194 19.3821 16.4303C19.4684 16.6315 19.5163 16.8328 19.5163 17.0148C19.5163 17.2448 19.4492 17.4748 19.315 17.6953C19.1904 17.9157 19.0084 18.1457 18.7784 18.3757L18.05 19.1328C17.9446 19.2382 17.8967 19.3628 17.8967 19.5161C17.8967 19.5928 17.9063 19.6598 17.9254 19.7365C17.9542 19.8132 17.9829 19.8707 18.0021 19.9282C18.1746 20.2444 18.4717 20.6565 18.8934 21.1548C19.3246 21.6532 19.7846 22.1611 20.2829 22.669C20.8004 23.1769 21.2988 23.6465 21.8067 24.0778C22.305 24.4994 22.7171 24.7869 23.0429 24.9594C23.0909 24.9786 23.1484 25.0073 23.2154 25.0361C23.2921 25.0648 23.3688 25.0744 23.455 25.0744C23.6179 25.0744 23.7425 25.0169 23.8479 24.9115L24.5763 24.1928C24.8159 23.9532 25.0459 23.7711 25.2663 23.6561C25.4867 23.5219 25.7071 23.4548 25.9467 23.4548C26.1288 23.4548 26.3204 23.4932 26.5313 23.5794C26.7421 23.6657 26.9625 23.7903 27.2021 23.9532L30.3742 26.2053C30.6234 26.3778 30.7959 26.579 30.9013 26.8186C30.9971 27.0582 31.0546 27.2978 31.0546 27.5661Z" stroke="white" stroke-miterlimit="10"/>
<path d="M27.7292 18.6247C27.7292 18.0497 27.2787 17.168 26.6079 16.4493C25.9946 15.788 25.18 15.2705 24.375 15.2705" stroke="white" stroke-linecap="round" stroke-linejoin="round"/>
<path d="M31.0833 18.6248C31.0833 14.9161 28.0838 11.9165 24.375 11.9165" stroke="white" stroke-linecap="round" stroke-linejoin="round"/>
</svg>
