<svg width="43" height="43" viewBox="0 0 43 43" fill="none" xmlns="http://www.w3.org/2000/svg">
<rect width="43" height="43" rx="21.5" fill="#313440"/>
<path d="M17.1875 13.8335H25.8125C26.4067 13.8335 26.9338 13.8527 27.4034 13.9197C29.9238 14.1977 30.6042 15.386 30.6042 18.6252V24.3752C30.6042 27.6143 29.9238 28.8027 27.4034 29.0806C26.9338 29.1477 26.4067 29.1668 25.8125 29.1668H17.1875C16.5934 29.1668 16.0663 29.1477 15.5967 29.0806C13.0763 28.8027 12.3959 27.6143 12.3959 24.3752V18.6252C12.3959 15.386 13.0763 14.1977 15.5967 13.9197C16.0663 13.8527 16.5934 13.8335 17.1875 13.8335Z" stroke="white" stroke-linecap="round" stroke-linejoin="round"/>
<path d="M22.9375 19.5835H26.2917" stroke="white" stroke-linecap="round" stroke-linejoin="round"/>
<path d="M16.7084 24.854H16.7275H26.2917" stroke="white" stroke-linecap="round" stroke-linejoin="round"/>
<path d="M19.674 19.5832H19.6826" stroke="white" stroke-linecap="round" stroke-linejoin="round"/>
<path d="M16.799 19.5832H16.8076" stroke="white" stroke-linecap="round" stroke-linejoin="round"/>
</svg>
