<svg width="43" height="43" viewBox="0 0 43 43" fill="none" xmlns="http://www.w3.org/2000/svg">
<rect width="43" height="43" rx="21.5" fill="#313440"/>
<path d="M21.5 23.4165H22.4583C23.5125 23.4165 24.375 22.554 24.375 21.4998V11.9165H15.75C14.3125 11.9165 13.0571 12.7119 12.4054 13.8811" stroke="white" stroke-linecap="round" stroke-linejoin="round"/>
<path d="M11.9167 26.2915C11.9167 27.8823 13.2008 29.1665 14.7917 29.1665H15.75C15.75 28.1123 16.6125 27.2498 17.6667 27.2498C18.7208 27.2498 19.5833 28.1123 19.5833 29.1665H23.4167C23.4167 28.1123 24.2792 27.2498 25.3333 27.2498C26.3875 27.2498 27.25 28.1123 27.25 29.1665H28.2083C29.7992 29.1665 31.0833 27.8823 31.0833 26.2915V23.4165H28.2083C27.6813 23.4165 27.25 22.9853 27.25 22.4582V19.5832C27.25 19.0561 27.6813 18.6248 28.2083 18.6248H29.4446L27.8059 15.7594C27.4609 15.1653 26.8284 14.7915 26.1384 14.7915H24.375V21.4998C24.375 22.554 23.5125 23.4165 22.4583 23.4165H21.5" stroke="white" stroke-linecap="round" stroke-linejoin="round"/>
<path d="M17.6667 31.0833C18.7252 31.0833 19.5833 30.2252 19.5833 29.1667C19.5833 28.1081 18.7252 27.25 17.6667 27.25C16.6081 27.25 15.75 28.1081 15.75 29.1667C15.75 30.2252 16.6081 31.0833 17.6667 31.0833Z" stroke="white" stroke-linecap="round" stroke-linejoin="round"/>
<path d="M25.3333 31.0833C26.3919 31.0833 27.25 30.2252 27.25 29.1667C27.25 28.1081 26.3919 27.25 25.3333 27.25C24.2748 27.25 23.4167 28.1081 23.4167 29.1667C23.4167 30.2252 24.2748 31.0833 25.3333 31.0833Z" stroke="white" stroke-linecap="round" stroke-linejoin="round"/>
<path d="M31.0833 21.5V23.4167H28.2083C27.6813 23.4167 27.25 22.9854 27.25 22.4583V19.5833C27.25 19.0563 27.6813 18.625 28.2083 18.625H29.4446L31.0833 21.5Z" stroke="white" stroke-linecap="round" stroke-linejoin="round"/>
<path d="M11.9167 17.6665H17.6667" stroke="white" stroke-linecap="round" stroke-linejoin="round"/>
<path d="M11.9167 20.5415H15.75" stroke="white" stroke-linecap="round" stroke-linejoin="round"/>
<path d="M11.9167 23.4165H13.8333" stroke="white" stroke-linecap="round" stroke-linejoin="round"/>
</svg>
