<svg width="33" height="33" viewBox="0 0 33 33" fill="none" xmlns="http://www.w3.org/2000/svg">
<rect x="0.813354" y="0.5" width="32" height="32" rx="16" fill="#313440"/>
<path d="M23.46 20.72C23.46 20.96 23.4067 21.2067 23.2933 21.4467C23.18 21.6867 23.0333 21.9133 22.84 22.1267C22.5133 22.4867 22.1533 22.7467 21.7467 22.9133C21.3467 23.08 20.9133 23.1667 20.4467 23.1667C19.7667 23.1667 19.04 23.0067 18.2733 22.68C17.5067 22.3533 16.74 21.9133 15.98 21.36C15.2133 20.8 14.4867 20.18 13.7933 19.4933C13.1067 18.8 12.4867 18.0733 11.9333 17.3133C11.3867 16.5533 10.9467 15.7933 10.6267 15.04C10.3067 14.28 10.1467 13.5533 10.1467 12.86C10.1467 12.4067 10.2267 11.9733 10.3867 11.5733C10.5467 11.1667 10.8 10.7933 11.1533 10.46C11.58 10.04 12.0467 9.83333 12.54 9.83333C12.7267 9.83333 12.9133 9.87333 13.08 9.95333C13.2533 10.0333 13.4067 10.1533 13.5267 10.3267L15.0733 12.5067C15.1933 12.6733 15.28 12.8267 15.34 12.9733C15.4 13.1133 15.4333 13.2533 15.4333 13.38C15.4333 13.54 15.3867 13.7 15.2933 13.8533C15.2067 14.0067 15.08 14.1667 14.92 14.3267L14.4133 14.8533C14.34 14.9267 14.3067 15.0133 14.3067 15.12C14.3067 15.1733 14.3133 15.22 14.3267 15.2733C14.3467 15.3267 14.3667 15.3667 14.38 15.4067C14.5 15.6267 14.7067 15.9133 15 16.26C15.3 16.6067 15.62 16.96 15.9667 17.3133C16.3267 17.6667 16.6733 17.9933 17.0267 18.2933C17.3733 18.5867 17.66 18.7867 17.8867 18.9067C17.92 18.92 17.96 18.94 18.0067 18.96C18.06 18.98 18.1133 18.9867 18.1733 18.9867C18.2867 18.9867 18.3733 18.9467 18.4467 18.8733L18.9533 18.3733C19.12 18.2067 19.28 18.08 19.4333 18C19.5867 17.9067 19.74 17.86 19.9067 17.86C20.0333 17.86 20.1667 17.8867 20.3133 17.9467C20.46 18.0067 20.6133 18.0933 20.78 18.2067L22.9867 19.7733C23.16 19.8933 23.28 20.0333 23.3533 20.2C23.42 20.3667 23.46 20.5333 23.46 20.72Z" fill="white"/>
</svg>
