<svg width="45" height="42" viewBox="0 0 45 42" fill="none" xmlns="http://www.w3.org/2000/svg">
<rect y="9.5" width="32" height="32" rx="16" fill="#313440"/>
<path d="M18.8333 32.5C19.4776 32.5 20 31.9777 20 31.3333C20 30.689 19.4776 30.1667 18.8333 30.1667C18.189 30.1667 17.6666 30.689 17.6666 31.3333C17.6666 31.9777 18.189 32.5 18.8333 32.5Z" fill="white"/>
<path d="M13.5 32.5C14.1444 32.5 14.6667 31.9777 14.6667 31.3333C14.6667 30.689 14.1444 30.1667 13.5 30.1667C12.8557 30.1667 12.3334 30.689 12.3334 31.3333C12.3334 31.9777 12.8557 32.5 13.5 32.5Z" fill="white"/>
<path d="M11.2267 20.1267L11.0934 21.76C11.0667 22.0733 11.3134 22.3333 11.6267 22.3333H21.8334C22.1134 22.3333 22.3467 22.12 22.3667 21.84C22.4534 20.66 21.5534 19.7 20.3734 19.7H12.18C12.1134 19.4067 11.98 19.1267 11.7734 18.8933C11.44 18.54 10.9734 18.3333 10.4934 18.3333H9.33337C9.06004 18.3333 8.83337 18.56 8.83337 18.8333C8.83337 19.1067 9.06004 19.3333 9.33337 19.3333H10.4934C10.7 19.3333 10.8934 19.42 11.0334 19.5667C11.1734 19.72 11.24 19.92 11.2267 20.1267Z" fill="white"/>
<path d="M21.6733 23.3333H11.4467C11.1667 23.3333 10.94 23.5467 10.9133 23.82L10.6733 26.72C10.58 27.86 11.4733 28.8333 12.6133 28.8333H20.0267C21.0267 28.8333 21.9067 28.0133 21.98 27.0133L22.2 23.9C22.2267 23.5933 21.9867 23.3333 21.6733 23.3333Z" fill="white"/>
<rect x="24" y="1.5" width="20" height="20" rx="10" fill="#F85B18"/>
<rect x="24" y="1.5" width="20" height="20" rx="10" stroke="white" stroke-width="2"/>
<path d="M34.9716 7.27273V16H33.9148V8.38068H33.8636L31.733 9.79545V8.72159L33.9148 7.27273H34.9716Z" fill="white"/>
</svg>
