<svg width="45" height="42" viewBox="0 0 45 42" fill="none" xmlns="http://www.w3.org/2000/svg">
<rect y="9.5" width="32" height="32" rx="16" fill="#F1F1F2"/>
<path d="M16.8667 22.9067L17.7467 24.6667C17.8667 24.9067 18.1867 25.1467 18.4534 25.1867L20.0467 25.4533C21.0667 25.6267 21.3067 26.36 20.5734 27.0933L19.3334 28.34C19.1267 28.5467 19.0067 28.9533 19.0734 29.2467L19.4267 30.7867C19.7067 32 19.06 32.4733 17.9867 31.84L16.4934 30.9533C16.22 30.7933 15.78 30.7933 15.5067 30.9533L14.0067 31.8333C12.9334 32.4667 12.2867 31.9933 12.5667 30.78L12.92 29.24C12.9867 28.9533 12.8667 28.5467 12.66 28.3333L11.4267 27.1C10.6934 26.3667 10.9334 25.6267 11.9534 25.46L13.5467 25.1933C13.8134 25.1467 14.1334 24.9133 14.2534 24.6733L15.1334 22.9133C15.6067 21.9533 16.3934 21.9533 16.8667 22.9067Z" fill="#CBCBD1"/>
<path d="M12 24C11.7267 24 11.5 23.7733 11.5 23.5V18.8333C11.5 18.56 11.7267 18.3333 12 18.3333C12.2733 18.3333 12.5 18.56 12.5 18.8333V23.5C12.5 23.7733 12.2733 24 12 24Z" fill="#CBCBD1"/>
<path d="M20 24C19.7267 24 19.5 23.7733 19.5 23.5V18.8333C19.5 18.56 19.7267 18.3333 20 18.3333C20.2733 18.3333 20.5 18.56 20.5 18.8333V23.5C20.5 23.7733 20.2733 24 20 24Z" fill="#CBCBD1"/>
<path d="M16 20.6667C15.7267 20.6667 15.5 20.44 15.5 20.1667V18.8333C15.5 18.56 15.7267 18.3333 16 18.3333C16.2733 18.3333 16.5 18.56 16.5 18.8333V20.1667C16.5 20.44 16.2733 20.6667 16 20.6667Z" fill="#CBCBD1"/>
<rect x="24" y="1.5" width="20" height="20" rx="10" fill="#F85B18"/>
<rect x="24" y="1.5" width="20" height="20" rx="10" stroke="white" stroke-width="2"/>
<path d="M34.9716 7.27273V16H33.9148V8.38068H33.8636L31.733 9.79545V8.72159L33.9148 7.27273H34.9716Z" fill="white"/>
</svg>
