<svg width="45" height="42" viewBox="0 0 45 42" fill="none" xmlns="http://www.w3.org/2000/svg">
<rect y="9.5" width="32" height="32" rx="16" fill="#F1F1F2"/>
<path d="M22.6667 32.1667H9.33337C9.06004 32.1667 8.83337 31.94 8.83337 31.6667C8.83337 31.3933 9.06004 31.1667 9.33337 31.1667H22.6667C22.94 31.1667 23.1667 31.3933 23.1667 31.6667C23.1667 31.94 22.94 32.1667 22.6667 32.1667Z" fill="#CBCBD1"/>
<path d="M14.5 20.1667V32.1667H17.5V20.1667C17.5 19.4333 17.2 18.8333 16.3 18.8333H15.7C14.8 18.8333 14.5 19.4333 14.5 20.1667Z" fill="#CBCBD1"/>
<path d="M10 24.1667V32.1667H12.6667V24.1667C12.6667 23.4333 12.4 22.8333 11.6 22.8333H11.0667C10.2667 22.8333 10 23.4333 10 24.1667Z" fill="#CBCBD1"/>
<path d="M19.3334 27.5V32.1667H22V27.5C22 26.7667 21.7334 26.1667 20.9334 26.1667H20.4C19.6 26.1667 19.3334 26.7667 19.3334 27.5Z" fill="#CBCBD1"/>
<rect x="24" y="1.5" width="20" height="20" rx="10" fill="#F85B18"/>
<rect x="24" y="1.5" width="20" height="20" rx="10" stroke="white" stroke-width="2"/>
<path d="M34.9716 7.27273V16H33.9148V8.38068H33.8636L31.733 9.79545V8.72159L33.9148 7.27273H34.9716Z" fill="white"/>
</svg>
